<svg id="Layer_1" data-name="Layer 1" xmlns="http://www.w3.org/2000/svg" viewBox="0 0 552.53 782.89"><defs><style>.cls-1,.cls-2,.cls-3{fill-rule:evenodd;}.cls-2{fill:#fff;}.cls-3{fill:#020202;}</style></defs><title>bird_Logo2</title><path class="cls-1" d="M7.79,669.44H6.06v8.66H9.18a119,119,0,0,0,6.28,21.39l1,2.38a118.82,118.82,0,0,0,26,38.54h0A120.29,120.29,0,0,0,128.17,776H424.35a121.62,121.62,0,0,0,111.72-74.09c.34-.79.67-1.58,1-2.38q1.48-3.76,2.72-7.58a118.59,118.59,0,0,0,3.56-13.81h3.11v-8.66h-1.73a123.65,123.65,0,0,0,.87-14.72V128.17a120.29,120.29,0,0,0-35.55-85.69v0a120.79,120.79,0,0,0-85.7-35.51H128.17a120.46,120.46,0,0,0-47.24,9.52,119.09,119.09,0,0,0-38.45,26v0h0a119.09,119.09,0,0,0-26,38.45,120.46,120.46,0,0,0-9.52,47.24V654.72A125.79,125.79,0,0,0,7.79,669.44ZM128.17,0H424.35A127.52,127.52,0,0,1,515,37.59v-.05a127.34,127.34,0,0,1,37.55,90.63V654.72A128.07,128.07,0,0,1,424.35,782.89H128.17a127.34,127.34,0,0,1-90.63-37.55h.05a125.86,125.86,0,0,1-27.54-40.78c-.71-1.69-1.39-3.37-2-5.07a127,127,0,0,1-8-44.77V128.17A127.15,127.15,0,0,1,37.54,37.59l.05-.05A127.15,127.15,0,0,1,128.17,0ZM432.75,33.17q-17.14,1.56-36.28,17-6.15,4.94-15,13.34-10.23,9.87-12.82,12.12.78-3,6.06-13.07a33.32,33.32,0,0,0,4-15.24q-9-.18-14,8.92-2.51,5.1-4,7.44a17.91,17.91,0,0,1-5.28,6.15q-5.71-3.37-16.72-6.15Q321.21,59.24,320.52,59a.47.47,0,0,0,.52-.35c0-.29-.12-.46-.52-.52-1.39.75-3.32.9-5.81.43a49.53,49.53,0,0,0-5.88-1.21q-80.64-8.65-124.89,38-42,44.16-38.88,123.24,8.31-.27,28.41-1.74,19.4-1.38,26.5-1.55-4.51-41.33,14.11-94c3-.4,6-.69,9.1-.87Q230.71,97.17,255,84q22.95-12.56,53.87-12.55,32.13,0,49.1,11.6a122.08,122.08,0,0,0-79.94-4q-19.49,5.81-32.73,17.32-14.12,12.3-18.71,29.1H219q-8.84,14.21-13,40.18a222.39,222.39,0,0,0-2.77,44.6q7.88,4.24,27,8.83,18,4.25,26.15,9.44-7.44.18-23.64,3.21-15.07,2.85-22.87,2.6-3.28-.09-12-2.25-7.27-1.92-11.26-1-4.24.94-11.69,8.48a74.41,74.41,0,0,0-9.1,10.66Q160.56,258,156.49,271a134.46,134.46,0,0,0-4.76,20.78q15.06-25.54,19.31-31.69,12-17.32,23.9-24.86c.23,1.22-1,3.06-3.64,5.55s-3.6,4.5-3,6.06c-.05-.64.78-.95,2.52-.95s2.56.31,2.51.95A14.4,14.4,0,0,1,192,251a16.27,16.27,0,0,0-1.21,5.89,13,13,0,0,1,6.49-.26,39,39,0,0,0,6.84,1q1.31-1,4.33-4.07a5.56,5.56,0,0,1,6.41-.08,21.36,21.36,0,0,1-1.47,5.28q-1.12,3.12-.17,4.68,3.38,2.07,6.75-.87c2.89-2.6,4.79-4,5.72-4.07a8.56,8.56,0,0,1,5.28,1.3c3.18,1.73,5,2.68,5.54,2.86a45.7,45.7,0,0,1-.6,7.27,31.71,31.71,0,0,0-.26,7.71q1.54.35,5.37,1.47,3.45.69,5.45-.69,1.74-1.47,3-6.15,1.4-4.84,2.77-6.32,16.64,13.16,22.35,20.69,11,14.48,6.75,30.06a22.25,22.25,0,0,1,6.67,1.64q-3.46,7.36-1.73,17.93,1,6,3.38,18.62,1.9,21.48-3.47,46.24a288.53,288.53,0,0,1-12.3,40.27A217.45,217.45,0,0,0,347,408.94q26.67-18.27,55.77-49.88-19.76,3.38-27.28,3.37-18.61.18-26.76-9.18-.69,4.94-5,10-21.81,3.72-30.31-7.27-3.45-4.59-6.32-13.25,0-.18-4.93-17.67-4.16-14.81-5.29-20.09a91.26,91.26,0,0,1-2.16-19.83q-1.12,1-3.81,6.58c-1.33,2.94-3.12,4.62-5.37,5q-4.33-5.71-2.08-18.88,3.38-14.11,3.81-18.53c-2.08.34-4,1.79-5.89,4.33-1.67,2.31-3.61,3.38-5.8,3.2q-6.15-.44-6.67-9.18-.25-5.28,5.89-15.33,6.4-10.56,6.58-12.12a22.2,22.2,0,0,1-3.55,2.43q-2.34,1.2-3.9.08a44.53,44.53,0,0,1,14.9-8q5.28-1.74,15.85-4.42,1.81,5.9-1.39,14.72-5,13.86-5.28,15.25-2.69,13.24-1.47,31.35a201.42,201.42,0,0,0,4.85,32.64A170.87,170.87,0,0,0,307.87,335q5.46,14.72,9.27,18.27,4,3.74,12.3,4.16a41.09,41.09,0,0,0,14.28-1.65q.79-2,2.08-6.23t2.08-6.24q3,1.21,6.58,6.58t6.76,6.76q10.56,4.33,31.78-.78,17.58-4.25,27.28-10.05c-.11-5.77-.14-8.92-.08-9.43.23-3.82,1.07-6.21,2.51-7.19q2.94,2.69,4.59,8.31,2,6.58,3.72,9.09,29.79-10.81,47.46-34a50.58,50.58,0,0,0-5.2-5.8c-2.19-2.31-3-4.54-2.34-6.67a30.31,30.31,0,0,0,26.33-2.95q12.64-7.62,12.73-20.35a77.2,77.2,0,0,1-47.54-16.45,192.71,192.71,0,0,1-16.89-15.24Q433.45,233,429.38,229.41a83.33,83.33,0,0,0-12.21-9.09,47,47,0,0,0-13.52-5.89,42.93,42.93,0,0,0-19.91,0q-6.15,1.38-17.5,6.67,9.18-14.46,35.68-15a237.12,237.12,0,0,1,13.34-65.64,56.79,56.79,0,0,0,5.63,3.9,16.07,16.07,0,0,0,7.71,1.9q2.16-9-4.68-16.37-4.07-3.81-6.06-5.8a24.62,24.62,0,0,1-5.11-6.15q3.38.87,9.35,6.93,5.11,5,11.43,4.76,2.78-7.78-2.68-12.9-7.53-4.76-10.57-7.1a39.3,39.3,0,0,1,8.66,2.94q5.46,1.56,8-2.07-5.19-10.74-19.4-16.37-8.92-3.56-28.84-6.93c1-1.1,4.85-1.82,11.61-2.17q9-.35,10-5.28-6.33-4-16.72-1.47A127.31,127.31,0,0,1,377,83.05q1.9-9.52,15.16-14.29Q398,66.6,419,62.87q17.24-3,23.73-7.36,9.45-6.32,5.8-19a17,17,0,0,0-6.84-3.12A33.61,33.61,0,0,0,432.75,33.17ZM151.08,669.44Q173.9,654.71,192.43,626a82.65,82.65,0,0,0,12.47-11.6c1.16-2.19,1.65-5.17,1.47-8.92a44.3,44.3,0,0,1,.18-9.44,15.89,15.89,0,0,1,2.6-5,14.12,14.12,0,0,0,2.42-4.94,34.12,34.12,0,0,0,.52-6.58,25.1,25.1,0,0,0-.52-6.67q-.52-1.9-4.33-8.83a15.77,15.77,0,0,1-2.34-9.53q1-6.84,7.54-10.74-.18-30.83-1.74-45-.25-2.16-2.59-14.2a36.93,36.93,0,0,1-1-10.82c.07-.55.16-1.07.26-1.56-.11-.23-1-.29-2.77-.17-1.9.11-3.2-.12-3.9-.7a16.59,16.59,0,0,0-1-4.76,13.06,13.06,0,0,1-.61-5.2q-1.9-1.81-12.38-9.61-7.8-5.62-10.92-11.17a111.26,111.26,0,0,1-31.61-11.61q-25-13.77-25.72-23.29-1.56-18.88,8.32-58.2a209.09,209.09,0,0,1,9.18-28,170.34,170.34,0,0,1,10.74-21.91,104.72,104.72,0,0,1,10.73-38.71q6.67-13.26,20-29.45-24.25-1.56-39.06-8.31-2.16-43.12,9.27-77.77,11.78-35.6,36.46-57.77,21-18.87,45.72-27,25-8.31,58.2-7.1a271.18,271.18,0,0,1,33.26,3.12,249.86,249.86,0,0,1,32.47,7.71,28.92,28.92,0,0,0,5.89-6.84l5-7.63q6.42-8.74,16.46-8.83a7.93,7.93,0,0,0,3.38,3.38c.34,5.54-.49,9.7-2.52,12.47,1.74-.92,5.11-3.44,10.14-7.53Q400.54,40.53,406,37q19.58-12.39,36.72-8,6.33,1.74,10.66,8.23a16.62,16.62,0,0,1,1.81,15.93Q451.81,61.75,434.49,65q-10,1.47-14.81,2.34a67.42,67.42,0,0,0-13.6,3.29c1.15.69,2.94,1.68,5.37,3a17.13,17.13,0,0,1,4.68,3.72,8.86,8.86,0,0,1-.87,4.59,10,10,0,0,0-.87,4.59,147.75,147.75,0,0,0,18.1,9.35q9.7,6.24,9.36,18a2.78,2.78,0,0,1-1.47,2.68,9.81,9.81,0,0,1-3.47.69q3.46,4.59,2.6,11.69-1,7.8-7.62,5.72c.57,4.79.86,8,.86,9.61-.05,3.76-.89,6.38-2.51,7.88a16.33,16.33,0,0,1-7.18-.69,42.76,42.76,0,0,1-5.29-2.6q-4.93,10.4-7.79,26.68-1.74,9.78-3.9,30.65,11.69,5.37,25.46,17.24,8,6.75,23.38,21.13,13.95,12,25.81,17.49a69.61,69.61,0,0,0,32.65,6.5q10.14,10-3.12,23.73-12.56,13.08-27.62,13.68,5.44,7.62-3.12,17.24Q477,326,462.63,337.49q-10.74,8.58-17,12-12.14,6.75-17.06,2.08c-2.49-2.77-3.87-4-4.16-3.81-.69,1.38-2.37,2.94-5,4.67a23.8,23.8,0,0,1-5.29,2.43,15,15,0,0,0-3.89,1.73,36.6,36.6,0,0,0-6.15,6.58c-2.08,2.77-3.61,4.45-4.59,5q3.9.36,11.78-5.62,7.44-5.81,13.16-4.33-2.43,15.15-19.66,25.11-6.75,3.81-31.95,13.08Q376,412.06,365.46,430a81.81,81.81,0,0,1-23.38,25.55c.35,2-.61,4.36-2.86,7-2.42,2.88-3.69,5.54-3.81,8a22.14,22.14,0,0,1-2.81,3.21c-.68.61-1.39,1.19-2.12,1.73q-1.47,14.12-1.65,37.93Q328.58,539,328,547q7.46,4.93,7.88,18.1.44,13.6-8.74,16.8,1.13,3.21,4,22.7,2.09,14.1,7.71,18.87a6.54,6.54,0,0,0,.26,3.47,9.35,9.35,0,0,1,.52,3.2,10.28,10.28,0,0,0,3.2,3.47,14.75,14.75,0,0,1,3.47,3.2q-.44,12.83,12.47,18.79,3.19,1.39,28.32,7.8,6.93,1.82,23.55,4.67,2.93.66,5.37,1.39,9.18,2.71,11.78,6.41a11.17,11.17,0,0,1,1.13,2.25,35.7,35.7,0,0,1,1.56,5.2c.8,3.69,1,6.46.6,8.31s-2.25,4.27-5.54,6.93q-7,5.63-7.71,6.41-3.37,3.72-9.78,14-7.28,12-11,16.81-14.89,19.58-31.61,15.76A40.69,40.69,0,0,1,356.8,748a52,52,0,0,0-8.92-4,63.65,63.65,0,0,0-7.79-1.64q-5.46-1-8-1.65-16.8-5.1-19.48-5.8-14.55-3.9-23.73-4.16-5.55.62-8.14.78a12.9,12.9,0,0,1-8.49-2.42q-.69-8.15,3.72-17.67,6-10.56,8.75-15.59,3.21-5.79,7.62-15.76c.31-.68.61-1.35.91-2q2.36-5.19,4-8.66c1.06-2.3,1.88-4,2.46-5.2,1.67-2.42,2.95-4.33,3.81-5.72a14.36,14.36,0,0,0,2.17-12.72,33.71,33.71,0,0,1-1-4.85,14.39,14.39,0,0,1,.69-4.42,17.67,17.67,0,0,0,.95-4.76q.44-9.18-3.81-29.36-4-18.79-2.77-27.2a14,14,0,0,1,2-4.5,17.47,17.47,0,0,0,2.17-4.59,77.56,77.56,0,0,0,.69-15c-.34-7.62-.58-13.16-.69-16.63q-.34-8.84-.87-30.22-.43-18.63-.86-28c-.66-1-1.21-1.89-1.65-2.6-.58-.91-1-1.58-1.21-2a14.79,14.79,0,0,1-1.3-6.23,120.82,120.82,0,0,1-19.4-5.11,45.87,45.87,0,0,1-15.5-9q-9.53,6.42-23.3,7.45-.66,5.18-2,14.9c-.28,2-.59,4.13-.91,6.4q-1.65,13.35-2,25.29-.27,8.49-1.48,26.07-.78,15.16.61,22.95a15.87,15.87,0,0,0,2.17,4.5,25.45,25.45,0,0,1,2.85,5.55,81.86,81.86,0,0,1,2.34,13.42q1,8.31,2.6,11.52a30.34,30.34,0,0,0,4.07,4.94,13.83,13.83,0,0,1,3.46,5c.7,2.25.87,5.69.52,10.3q-.6,8.76-.52,10.48a51.55,51.55,0,0,0,2.69,12.21,111.69,111.69,0,0,0,4.76,11.87q.53,1,6.67,11.17,3.64,5.88,3.29,9.61a11.84,11.84,0,0,1-1.3,4.42,24,24,0,0,1-7.1,7.79c-.4.3-.8.59-1.21.87a37.19,37.19,0,0,1-13.6,6.06,40.71,40.71,0,0,1-7.53.52,73.16,73.16,0,0,0-8.32.35,102.64,102.64,0,0,0-16.19,3.81q-11.09,3.54-17.06,5.28-15.51,4.5-36.46,4.68-13.51,0-37.5-2.17a114.49,114.49,0,0,1-11.69-1c-4.51-.75-7.82-2.37-10-4.85q7-4.76,22.08-9.53,5.38-1.68,9.7-3.2a90.83,90.83,0,0,0,13.17-5.54C147.66,671.58,149.38,670.53,151.08,669.44ZM330.74,111.2q4.75,7,5.54,12.64a42.94,42.94,0,0,1,.08,11.87q-.78,6.22-3.37,9.7a50.48,50.48,0,0,0,6.06,2.77,11.73,11.73,0,0,1,4.67,3,13,13,0,0,1,3.21,11.6,16.82,16.82,0,0,1-6.15,9.79,18,18,0,0,1-11,4.33,13.62,13.62,0,0,1-11-4.94q-4,8.58-14.37,14.81a55.62,55.62,0,0,1-21.83,7.45q-12.37,1.47-21.56-2.86a25.16,25.16,0,0,1-13.68-16,23.19,23.19,0,0,0-5.81,5.8q7.11,14.12,17.41,19.14-12.21.09-20-17.66-7.45-17.07-3.29-30.58a11.07,11.07,0,0,1-6.93-6.06,16.53,16.53,0,0,1-1.65-9.61,12.57,12.57,0,0,1,4.07-8.4q4-3.47,10.39-2.51Q254.45,97,278.08,91.37q29.54-7,60.1,10.65,26.85,15.58,38,38.45a26.31,26.31,0,0,1-7-7.53,81.93,81.93,0,0,0-6.32-8.32,120.4,120.4,0,0,0-15.94-14.11,53,53,0,0,0-21.48-9.18Q326,103.93,330.74,111.2Zm-49.37,52.48q6.93-2.09,10.39-6.24,4-4.75,3.81-12.81a39.81,39.81,0,0,0-13.76-4.25q-8.83-.94-11.18,5a4,4,0,0,0,5.46,1.64,26.85,26.85,0,0,1,4.5-1.64,6.93,6.93,0,0,1-4.85,5.8,12.82,12.82,0,0,1-8.31,0,11.1,11.1,0,0,1-6.5-4.33q-2.16-3.37.52-7.28c-1,.7-2.45.9-4.41.61s-3.27-.2-3.9.26q-2.16,8.06,3.64,13.68,3.47,3.47,12.12,7.1-4,1.31-9.61-2a66.58,66.58,0,0,0-7-4.67Q262.5,168,284.14,167.06a82.07,82.07,0,0,0,35.51-10q-2.77-4.24-9.61-7.45-8.24-3.12-12-5,.6,8.48-4.24,13.94A15.58,15.58,0,0,1,281.37,163.68Zm27.46-27.37A44.26,44.26,0,0,1,319.39,143q5.89,4.77,8.57,5.8,10.57-18,.35-35.76Q318.44,96,298.87,93.88q-21.48-2.25-36.9,10.48t-16.28,32.73c.23-.81,1.3-1.44,3.21-1.9a29.82,29.82,0,0,1,3.37-.61,1,1,0,0,1-.69-.35c-.29-.23-.32-.37-.09-.43q12.39-4.59,30-3.38Q297.23,131.47,308.83,136.31Zm22.43,12.47a1.62,1.62,0,0,1-.61,1.91c-.69.46-1,.92-1,1.38a30.42,30.42,0,0,1,6,.09c2.42.17,3.75.15,4-.09a30.7,30.7,0,0,0-3.64-2.16A11.67,11.67,0,0,0,331.26,148.78Zm-10.74,21.57a9,9,0,0,0,6.58,3.2,15.14,15.14,0,0,0,8.14-1.47q10-4.5,8.48-14.2-7.35-7.11-15-1.65Q321.9,161.08,320.52,170.35Zm-.18-17.06a4.47,4.47,0,0,0,3.47.43q-6.15-12-24.25-17.41a62.73,62.73,0,0,0-34.82-.86,115.69,115.69,0,0,1,52.4,15.76C317.83,151.61,318.9,152.31,320.34,153.29Zm-36.2,18.1a73,73,0,0,1-28.49-7.71q5.62,12.81,28.32,13.42,22,.53,31.52-10Q301.55,172.69,284.14,171.39Zm17.24,55.51q-14.29,15.24-13.34,30,5.9-4.41,9.7-13A40.84,40.84,0,0,0,301.38,226.9Zm-6.67.87q-.18-2-1.65-1.74-8.74,8.4-12.64,15.07a33.49,33.49,0,0,0-4.85,20.7q7.11-2.6,10.91-15.68Q290.73,231.23,294.71,227.77Zm-7.8,47.45q-2.42,10.23.35,17.32,4.07-4.67,6-15.15t-.18-17.23A49,49,0,0,0,286.91,275.22Zm-10.47,43.13q8.31-11.43-2.52-27.45A60.31,60.31,0,0,0,252.27,271q-1.56,7.62-5.8,10.83c-3.69,0-6.38-.09-8.05-.26q-4.42-.36-6.07-2.26-.69-1.91.18-6a27,27,0,0,0,.69-7.36,39.4,39.4,0,0,0-3.38-2.51,9,9,0,0,0-4.15-1.65q-7.45,8.93-15,3.38c-.4-.35-.43-1.5-.08-3.47s.11-3.37-.7-4.07q-3.63,3.21-10.39,2.77a101,101,0,0,0-12.9-1.12,13.58,13.58,0,0,1,1.73-4.85,10.94,10.94,0,0,0,1.56-5.11,11.75,11.75,0,0,0-2.6.43,5.64,5.64,0,0,1-2.34-.43,273.46,273.46,0,0,0-39,60Q127.65,348,126.79,384a142.12,142.12,0,0,0,.34,17.4q1.31,9.62,6.32,13.43,22.35,16.89,60.37,24.68a236.51,236.51,0,0,0,75.08,3.55q12.56-28.32,16.72-53.35,5.44-33.25-4.25-58.89a10.87,10.87,0,0,1,1.39-4.07,8.44,8.44,0,0,0,1.12-4.24,9.83,9.83,0,0,0-3.81-2A7.4,7.4,0,0,1,276.44,318.35ZM314.63,172q-18.7,12-41.48,6.5-23.91-5.81-27.46-26.42-.16,16.45,6.24,27.28,6.84,11.61,19.48,13.43a40.34,40.34,0,0,0,25.9-4.51A46.77,46.77,0,0,0,314.63,172Zm51.61,227q-15.58,15.33-44.86,28.84-34.63,14.37-51.61,21.91a131,131,0,0,0,13.42,7.36,41.76,41.76,0,0,0,17.32,3.46,15.88,15.88,0,0,1,1.65,9.1c2.08-.41,3.75-1.79,5-4.16q3-5.46,3.29-5.8c1.73.4,3.26,2.34,4.59,5.8,1.21,3.29,3,5,5.46,5,1.15-.4,1.84-1.79,2.08-4.15.28-2.78.69-4.45,1.21-5,1.15.75,1.93,2.46,2.34,5.11s1.35,4.68,2.68,5.72c2.71-.46,4.16-2.31,4.33-5.54a36.49,36.49,0,0,1-.17-7.8c.57.29,1.5.78,2.77,1.47a2.73,2.73,0,0,0,3-.6,5.16,5.16,0,0,0-.52-2.77,4.69,4.69,0,0,1-.35-3q27.38-17.25,30-54C367.72,399.21,367.16,398.92,366.24,399Zm36.29-17.93q13.08-7.62,18.53-19.48Q388.15,376.72,377,392.31,397.16,384.17,402.53,381.05ZM307,478.22q0,1.13,1,12.21a18.19,18.19,0,0,0,3.55-.43c.86-.12,1.32.57,1.38,2.08a1.54,1.54,0,0,0-1.9-.26,5.13,5.13,0,0,1-3,.26,40.47,40.47,0,0,1,.69,9c-.06,4.51,0,7.33.09,8.49a5.26,5.26,0,0,0,3.46.61c1.44-.12,2.22,0,2.34.25-.58.93-1.22,1.36-1.91,1.3a10.28,10.28,0,0,0-3-.51c-.69,1.56-1,4.61-.86,9.17,1.32,1.45,3.55,2.17,6.66,2.17q6.15-.09,7.45.35c.58-1.73.87-4.77.87-9.1q-.09-7.87,0-11.69c-2.6.29-4.42.44-5.46.44a4,4,0,0,1-3.72-2.08l4.67.43a15.3,15.3,0,0,0,4.51-.43c.23-1.79.37-3.55.43-5.29q.09-3.12.43-6.4c-.23-.24-1.41-.38-3.55-.44q-2.69,0-3.12-2.07a7.47,7.47,0,0,1,3.21.17,22.28,22.28,0,0,0,2.6.69,36.27,36.27,0,0,0,1-8,28.75,28.75,0,0,0-.35-5.45,10.75,10.75,0,0,0-.69-2.43q-.66.82-1.86,2.43a1.09,1.09,0,0,0-.13.17,4.77,4.77,0,0,1-3,1.56,6.61,6.61,0,0,1-3.59-1.73,10,10,0,0,1-1.69-2q-3.47-5.1-3.81-5.36-2,2.34-2.51,7.36A41.86,41.86,0,0,0,307,478.22Zm16.8,46.33q-1.12-.16-8.32-.69a31.08,31.08,0,0,1-8.31-1.82,10,10,0,0,0-.17,5.63q.51,2.87-.7,4.33a21.45,21.45,0,0,1,5.2.61,15.06,15.06,0,0,1,6.49,2.77,8,8,0,0,1-4.5.26,43.48,43.48,0,0,0-4.67-1.13,7.36,7.36,0,0,1-.61,2.25,4.49,4.49,0,0,0-.17,2.77q2,1.05,6.92.87,6.93-.17,8-.09a32,32,0,0,1-.43-7.62A76.12,76.12,0,0,1,323.81,524.55Zm2.51,32.39a8.21,8.21,0,0,0-4-1,9.6,9.6,0,0,1-3.55-.6c1.85-.76,3.18-2.69,4-5.81a13.66,13.66,0,0,0,.17-7.45,28.48,28.48,0,0,1-7.71.61,30.5,30.5,0,0,1-7.18-1.47q-.35,4.34,1.38,12.47,1.65,7.89,1,12.47c-.17,1.56-1.1,3.55-2.77,6a20.35,20.35,0,0,0-3,5.63q-.69,3.45,0,14.2a170,170,0,0,0,2.94,20.7q3.47,17.24,3.73,19.14c1.56.58,3.66.37,6.32-.61q3-1,3.64.61-1.74,2.16-5.72,2.16a24.29,24.29,0,0,0-5.11.35c-1,.57-1.56,2-1.73,4.24a7.26,7.26,0,0,0,.95,4.94q2.25.6,10.39-1.21,5.71-1.21,7,2.85-2.6-.6-8.32.18c-4.32.75-7.36,1.24-9.09,1.47a50.21,50.21,0,0,1-4.5,20.7c-.28.63-.58,1.29-.91,2l-4,7.45c-.46.78-.93,1.59-1.43,2.42l-2.38,3.81-1.34,2.08-.22.35a193.49,193.49,0,0,0-10.74,18,58.11,58.11,0,0,0-6.06,20.53q4.43.17,13.77-.09a101.78,101.78,0,0,1,15.33.86q9.61,1.49,28.58,9.7,18.62,8.15,28.75,9.44,10.31,1.39,19.66-5.8,4.15-3.19,13.6-14.11,12.64-14.57,16.62-21,8.94-14.16,6.8-25c0-.2-.08-.41-.13-.61Q413,674.9,396.64,672q-8.16-1.42-14.07-2.6-7-1.4-10.78-2.43-27.63-7.62-31.35-28.58a10.65,10.65,0,0,0-2.52-2.85,11.47,11.47,0,0,1-2.51-3v-5q-6.5-5-8.48-18.88-1.31-16.89-2.26-25.12a23.74,23.74,0,0,0-3.2-3.2c-1.33-1.27-1.65-2.43-1-3.46a19.49,19.49,0,0,0,2.68,1.3,5.28,5.28,0,0,0,3.12-.52,17.66,17.66,0,0,0,3.55-10.65Q330.05,560.5,326.32,556.94Zm-91.54-422q5.11-4,5.89-6.15Q235,126.1,230.8,132t-.09,10.91Q230.53,138.23,234.78,134.93Zm-.52,3.89a9.57,9.57,0,0,0-.17,6.24,8,8,0,0,0,3.55,4.85,6.75,6.75,0,0,0,6.32.52c-.46-.4-.52-1.65-.17-3.73a14.88,14.88,0,0,0,.17-5.45c-2.08-.17-3.44-.93-4.07-2.25a24.31,24.31,0,0,1-.87-4.42A7,7,0,0,0,234.26,138.82Zm3.9,32.39a32.29,32.29,0,0,0,4.15-1.64,4.06,4.06,0,0,0,1.65-4.16c-3-.23-5.2,1.16-6.58,4.16C238.07,169.74,238.33,170.29,238.16,171.21Zm10.48-23.9q1.81,5.46,2.85,4.76-2.25-4.66-1.64-11.6C247.83,141.39,247.42,143.67,248.64,147.31Zm-8,30.57c2.19-3,4.13-5,5.8-5.89q-1.38-2.94-5.28.52T240.67,177.88ZM219.8,223.69q-10.92-4.5-15.68-5.1-8.4-1-23,1.12-16.64,2.34-23.56,2.17,13.25,1.47,39.49,7,23.13,3.72,38.63-1.12Q229.58,227.84,219.8,223.69ZM204.12,467.13a5.36,5.36,0,0,0,4.16.44c.87-.23,2.25-.64,4.16-1.21.86,2.42,2.51,3.52,4.93,3.29a7.75,7.75,0,0,0,4.25-2.77c1.5-1.74,2.85-2.75,4.07-3a10.25,10.25,0,0,1,2.85,3.21q1.74,1.9,3.81.08c.76-.63,1.07-2.1,1-4.41a36.63,36.63,0,0,1-.09-5.55q3.56-.69,11.17-1.64,6.41-1.12,8.75-4.16-23.89,3-69.8-5.8a17.47,17.47,0,0,0,6.41,4.94c1.55.81,3.92,1.84,7.1,3.11Q204.91,457.61,204.12,467.13Zm6.84,6.59q1.18,7.8,3.9,31.69a13.86,13.86,0,0,0,3.47-.08c1.44-.12,2.25.2,2.42.95-.17.69-1,1-2.42,1a24.28,24.28,0,0,0-3.47-.17,40.7,40.7,0,0,1,.44,6.41,12.41,12.41,0,0,0,.43,4.41q1.56,1.56,5.89,1.82a12.73,12.73,0,0,0,6.58-1,185.08,185.08,0,0,1-.26-22.69q.75-14.31,1-22.34c0-.87.06-1.67.08-2.43q-3.19-.94-9.09,1.3a10.22,10.22,0,0,1-9.27-.43C210.78,472.61,210.87,473.13,211,473.72Zm18.88,62.44a70.82,70.82,0,0,1-1-8.14q-.34-5.29-1.56-7.63a18.27,18.27,0,0,1-7,.26,17.3,17.3,0,0,0-5.46-.26q2.08,2.86,0,10a10.54,10.54,0,0,0,3.12,1c1.38.34,2,1.09,1.9,2.25a5.66,5.66,0,0,1-4.15-.78,21.44,21.44,0,0,0-.09,7.44,20,20,0,0,1,.09,6.67,32.52,32.52,0,0,0-4.07,1.48,5.63,5.63,0,0,0-2.6,1.9q-3.47,4.93.69,11.09,2.25,3.28,6.58,8.4c-.28-.29-.49-.15-.6.43l2.86,1.73a2.9,2.9,0,0,1,1.29,3.2,2.53,2.53,0,0,1-2.16-.26,2.66,2.66,0,0,0-2-.51q.44,2.41-.61,12.38-.69,6.31,3.12,8.4c-2.66-.11-4.33.14-5,.78q-1.4,4.25,0,12.47,3,1.81,12.38.35,7.8-1.22,8.4,2.16-1.38.71-10.91.17-8.06-.42-9.87,3.21,1.82.78,8,1.39c3.35.57,4.59,1.76,3.73,3.55q-8.4-6.33-17.5,1-5.72,4.5-12.47,15.67-5.72,9.52-19.14,21.66a94.62,94.62,0,0,1-17.14,11.86q-5.06,2.82-11,5.63l-6.93,3q-16.27,7.13-24.77,11.08,7,.78,24.86,3a251.92,251.92,0,0,0,27.54,1.9q13.06,0,29.87-5.54,19.76-6.68,27.46-7.71,10.59-1.5,16.84-2.77a56.42,56.42,0,0,0,6.54-1.64q7.59-2.6,10.87-7a12.49,12.49,0,0,0,2.38-6.06q.44-3.64-2.34-9.1a108.07,108.07,0,0,1-5.19-10,186.14,186.14,0,0,1-7.45-19.06q-1.22-3.72-1.56-13.16-.25-7-3.47-11c-1.55.52-3,1-4.33,1.3q-3.89.87-4.76-2.16c1.39.17,2.83.37,4.33.6a5.27,5.27,0,0,0,3.12-1.38,265,265,0,0,0-12.47-41.57,88.06,88.06,0,0,0,1.64-11.61c.35-4.61-.75-7.68-3.29-9.18A4,4,0,0,0,229.84,536.16Z"/><path class="cls-2" d="M248.64,147.31c-1.22-3.64-.81-5.92,1.21-6.84q-.61,6.93,1.64,11.6Q250.46,152.77,248.64,147.31Z"/><path class="cls-3" d="M416,669.44H546.46v8.66H428.86a11.17,11.17,0,0,0-1.13-2.25Q425.14,672.16,416,669.44Zm-118.68,0q-1.63,3.46-4,8.66h-34c.41-.28.81-.57,1.21-.87a24,24,0,0,0,7.1-7.79Zm-289.48,0H151.08c-1.7,1.09-3.42,2.14-5.15,3.12a90.83,90.83,0,0,1-13.17,5.54H6.06v-8.66Z"/></svg>